# Blender v2.62 (sub 0) OBJ File: 'rainbowDash.blend'
# www.blender.org
# Oddwarg mod
# vGroup hack
o Cylinder.001_Cylinder.000
v 0.024754 0.090796 0.030813 #@
v 0.085751 0.055998 0.005732 #@
v 0.092384 -0.004274 -0.037710 #@
v 0.049508 -0.053779 -0.073392 #@
v -0.024754 -0.059162 -0.077272 #@
v -0.085751 -0.024364 -0.052191 #@
v -0.092384 0.035908 -0.008749 #@
v -0.049509 0.085413 0.026933 #@
v -0.000000 -0.374589 0.488603 #@
v -0.000000 0.168549 -0.250848 #@
v -0.024754 -0.269813 0.420139 #@
v -0.046192 -0.294566 0.402298 #@
v -0.042876 -0.324702 0.380577 #@
v -0.012377 -0.342101 0.368036 #@
v 0.024754 -0.339409 0.369976 #@
v 0.046192 -0.314656 0.387817 #@
v 0.042876 -0.284520 0.409538 #@
v 0.012377 -0.267121 0.422079 #@
v -0.012377 -0.342330 0.478203 #@
v -0.023096 -0.354706 0.469283 #@
v -0.021438 -0.369774 0.458422 #@
v -0.006189 -0.378474 0.452152 #@
v 0.012377 -0.377128 0.453122 #@
v 0.023096 -0.364752 0.462042 #@
v 0.021438 -0.349684 0.472903 #@
v 0.006189 -0.340984 0.479173 #@
vt 0.963486 0.137604
vt 0.963485 0.137604
vn 0.000000 0.560015 -0.828455
vn 0.255593 0.846828 0.466353
vn 0.856685 0.476821 0.196722
vn 0.960814 -0.135258 -0.241890
vn 0.499741 -0.625843 -0.598773
vn -0.258675 -0.709281 -0.655721
vn -0.863063 -0.328074 -0.383984
vn -0.957732 0.281533 0.058657
vn -0.493362 0.768578 0.407270
vn 0.253578 0.649556 0.716758
vn 0.850032 0.285501 0.442610
vn 0.952940 -0.302683 -0.016358
vn 0.494491 -0.782128 -0.379070
vn -0.256355 -0.858364 -0.444319
vn -0.854732 -0.494491 -0.157628
vn -0.950163 0.101352 0.294748
vn -0.489761 0.568896 0.660634
vn 0.232124 0.429792 0.872555
vn 0.000000 -0.560900 0.827845
vn 0.772423 0.085147 0.629322
vn 0.860988 -0.455763 0.225715
vn 0.442366 -0.892636 -0.086428
vn -0.230018 -0.962371 -0.144627
vn -0.767754 -0.632160 0.104282
vn -0.863094 -0.082888 0.498154
vn -0.447035 0.350047 0.823145
usemtl MelindaSkin_melinda.png
s 1
f 10/1/1 1/1/2 2/1/3
f 10/1/1 2/1/3 3/1/4
f 10/1/1 3/1/4 4/1/5
f 10/1/1 4/1/5 5/1/6
f 10/1/1 5/1/6 6/1/7
f 10/1/1 6/1/7 7/1/8
f 10/1/1 7/1/8 8/1/9
f 8/1/9 1/1/2 10/1/1
f 1/1/2 18/1/10 17/1/11
f 1/1/2 17/1/11 2/1/3
f 2/1/3 17/1/11 16/1/12
f 2/1/3 16/1/12 3/1/4
f 3/1/4 16/1/12 15/1/13
f 3/1/4 15/1/13 4/1/5
f 4/1/5 15/1/13 14/1/14
f 4/1/5 14/1/14 5/1/6
f 5/1/6 14/1/14 13/1/15
f 5/1/6 13/1/15 6/1/7
f 6/1/7 13/1/15 12/1/16
f 6/1/7 12/1/16 7/1/8
f 7/1/8 12/1/16 11/1/17
f 7/1/8 11/1/17 8/1/9
f 18/1/10 1/1/2 8/1/9
f 18/1/10 8/1/9 11/1/17
f 26/1/18 9/1/19 25/1/20
f 18/1/10 26/1/18 25/1/20
f 18/1/10 25/1/20 17/1/11
f 25/1/20 9/1/19 24/1/21
f 17/1/11 25/1/20 24/1/21
f 17/1/11 24/1/21 16/1/12
f 24/1/21 9/1/19 23/1/22
f 16/1/12 24/1/21 23/1/22
f 16/1/12 23/1/22 15/1/13
f 23/1/22 9/1/19 22/1/23
f 15/1/13 23/1/22 22/1/23
f 15/1/13 22/1/23 14/1/14
f 22/1/23 9/1/19 21/1/24
f 14/1/14 22/1/23 21/1/24
f 14/1/14 21/1/24 13/1/15
f 21/1/24 9/1/19 20/2/25
f 13/1/15 21/1/24 20/2/25
f 13/1/15 20/2/25 12/1/16
f 20/1/25 9/1/19 19/1/26
f 12/1/16 20/1/25 19/1/26
f 12/1/16 19/1/26 11/1/17
f 19/1/26 9/1/19 26/1/18
f 11/1/17 19/1/26 26/1/18
f 11/1/17 26/1/18 18/1/10
